<?xml version="1.0" encoding="UTF-8" standalone="no"?>
<svg
   xmlns:dc="http://purl.org/dc/elements/1.1/"
   xmlns:cc="http://creativecommons.org/ns#"
   xmlns:rdf="http://www.w3.org/1999/02/22-rdf-syntax-ns#"
   xmlns:svg="http://www.w3.org/2000/svg"
   xmlns="http://www.w3.org/2000/svg"
   xmlns:sodipodi="http://sodipodi.sourceforge.net/DTD/sodipodi-0.dtd"
   xmlns:inkscape="http://www.inkscape.org/namespaces/inkscape"
   viewBox="0 0 168.53516 145.39456"
   version="1.1"
   xml:space="preserve"
   style="clip-rule:evenodd;fill-rule:evenodd;stroke-linejoin:round;stroke-miterlimit:1.41420996"
   x="0px"
   y="0px"
   stroke-miterlimit="1.41421"
   id="svg4"
   sodipodi:docname="archway.svg"
   width="168.53516"
   height="145.39455"
   inkscape:version="0.92.4 (5da689c313, 2019-01-14)"><metadata
   id="metadata10"><rdf:RDF><cc:Work
       rdf:about=""><dc:format>image/svg+xml</dc:format><dc:type
         rdf:resource="http://purl.org/dc/dcmitype/StillImage" /><dc:title></dc:title></cc:Work></rdf:RDF></metadata><defs
   id="defs8" /><sodipodi:namedview
   pagecolor="#ffffff"
   bordercolor="#666666"
   borderopacity="1"
   objecttolerance="10"
   gridtolerance="10"
   guidetolerance="10"
   inkscape:pageopacity="0"
   inkscape:pageshadow="2"
   inkscape:window-width="1920"
   inkscape:window-height="1137"
   id="namedview6"
   showgrid="false"
   fit-margin-top="0"
   fit-margin-left="0"
   fit-margin-right="0"
   fit-margin-bottom="0"
   inkscape:zoom="4"
   inkscape:cx="112.38443"
   inkscape:cy="70.879733"
   inkscape:window-x="1072"
   inkscape:window-y="576"
   inkscape:window-maximized="1"
   inkscape:current-layer="svg4"
   inkscape:pagecheckerboard="false"
   showguides="true" /><text
   xml:space="preserve"
   style="font-style:normal;font-weight:normal;font-size:40px;line-height:1.25;font-family:sans-serif;letter-spacing:0px;word-spacing:0px;fill:#000000;fill-opacity:1;stroke:none"
   x="84.609375"
   y="137.34767"
   id="text10"><tspan
     sodipodi:role="line"
     id="tspan8"
     x="84.609375"
     y="137.34767"
     style="font-style:normal;font-variant:normal;font-weight:normal;font-stretch:normal;font-size:40px;font-family:sans-serif;-inkscape-font-specification:'sans-serif, Normal';font-variant-ligatures:normal;font-variant-caps:normal;font-variant-numeric:normal;font-feature-settings:normal;text-align:center;writing-mode:lr-tb;text-anchor:middle">Archway</tspan></text>


<g
   id="g50"
   transform="translate(-3.8476574,-0.25)"><path
     inkscape:connector-curvature="0"
     id="path2"
     d="m 93.810731,25.623196 h -11.542 c -0.096,-0.004 -0.187,-0.013 -0.28,-0.04 -0.243,-0.071 -0.454,-0.235 -0.582,-0.454 -0.049,-0.084 -0.08,-0.17 -0.108,-0.262 l -0.634,-2.524 c -0.755,0.093 -1.507,0.217 -2.252,0.373 -0.989,0.206 -1.966,0.466 -2.927,0.777 -5.26,1.704 -10.073,4.965 -13.369,9.431 -0.676,0.916 -1.286,1.881 -1.818,2.887 -0.596,1.127 -1.094,2.307 -1.479,3.522 -0.317,0.999 -0.557,2.021 -0.718,3.056 -0.081,0.526 -0.14,1.054 -0.181,1.584 l -0.011,0.145 -0.007,0.117 0.023,60.821014 c -0.017,0.172 -0.009,0.22 -0.076,0.383 -0.101,0.243 -0.297,0.44 -0.54,0.541 -0.162,0.067 -0.21,0.059 -0.382,0.077 l -17.759,0.033 c -0.172,-0.017 -0.221,-0.008 -0.383,-0.076 -0.244,-0.1 -0.442,-0.297 -0.543,-0.541 -0.067,-0.163 -0.059,-0.211 -0.076,-0.384 l 0.044,-60.913014 c 0.057,-1.069 0.15,-2.134 0.29,-3.196 0.298,-2.255 0.792,-4.483 1.468,-6.655 0.543,-1.741 1.203,-3.446 1.97,-5.1 0.62,-1.339 1.31,-2.645 2.064,-3.913 0.667,-1.12 1.383,-2.211 2.146,-3.268 5.001,-6.936 11.957,-12.4150008 19.821,-15.7560008 3.181,-1.352 6.511,-2.354 9.912,-2.972 l -0.418,-1.661 c -0.006,-0.031 -0.014,-0.062 -0.019,-0.093 -0.014,-0.095 -0.015,-0.192 -0.002,-0.2859999 0.049,-0.35300006 0.288,-0.66000006 0.618,-0.79200006 0.089,-0.036 0.182,-0.059 0.278,-0.068 0.031,-0.003 0.063,-0.003 0.095,-0.005 7.769,0 15.547,-0.366 23.307,0.005 0.032,0.005 0.064,0.008 0.095,0.014 0.094,0.018 0.184999,0.05 0.269999,0.094 0.286,0.148 0.487,0.43200002 0.531,0.75200006 0.013,0.094 0.012,0.1909999 -0.002,0.2859999 -0.005,0.031 -0.013,0.062 -0.019,0.093 l -0.411,1.635 c 3.45101,0.616 6.83001,1.627 10.05601,2.998 7.864,3.341 14.82,8.8200008 19.822,15.7560008 0.762,1.057 1.479,2.148 2.145,3.268 0.754,1.268 1.444,2.574 2.065,3.913 0.766,1.654 1.426,3.359 1.969,5.1 0.676,2.172 1.17,4.4 1.468,6.655 0.14,1.062 0.233,2.127 0.29,3.196 l 0.044,60.913014 c -0.017,0.173 -0.009,0.221 -0.076,0.384 -0.101,0.244 -0.299,0.441 -0.543,0.541 -0.162,0.068 -0.211,0.059 -0.383,0.076 l -17.758,-0.033 c -0.173,-0.018 -0.221,-0.01 -0.383,-0.077 -0.243,-0.101 -0.439,-0.298 -0.54,-0.541 -0.067,-0.163 -0.059,-0.211 -0.076,-0.383 l 0.023,-60.821014 c -0.104,-1.617 -0.395,-3.218 -0.874,-4.766 -0.392,-1.264 -0.904,-2.489 -1.522,-3.658 -0.554,-1.048 -1.193,-2.052 -1.903,-3.001 -1.563,-2.092 -3.468,-3.921 -5.588,-5.441 -3.206,-2.299 -6.90701,-3.899 -10.772009,-4.684 -0.745,-0.151 -1.495,-0.271 -2.249,-0.36 l -0.639,2.542 c -0.028,0.092 -0.059,0.178 -0.108,0.262 -0.128,0.219 -0.339,0.383 -0.582,0.454 -0.093,0.027 -0.184,0.036 -0.28,0.04 z m -37.893,59.379996 h -15.736 l -0.014,19.085018 15.757,-0.03 z m 80.131009,0 h -15.736 l -0.007,19.055018 15.757,0.03 z m -0.014,-19.999996 h -15.714 l -0.007,18.129996 h 15.734 z m -80.124009,0 h -15.715 l -0.013,18.129996 h 15.734 z m 80.025009,-22 h -15.709 c 0.043,0.389 0.076,0.778 0.101,1.169 l -0.007,18.961 h 15.713 l -0.014,-18.902 c -0.022,-0.41 -0.05,-0.819 -0.084,-1.228 z m -79.932009,0 h -15.709 c -0.028,0.332 -0.052,0.665 -0.072,0.998 l -0.012,0.23 -0.014,18.902 h 15.713 l -0.007,-18.961 c 0.011,-0.17 0.023,-0.339 0.036,-0.509 0.019,-0.22 0.04,-0.44 0.065,-0.66 z m 69.444009,-23.514 -10.84,10.84 c 0.454,0.535 0.887,1.088 1.298,1.658 0.693,0.963 1.318,1.974 1.866,3.026 0.644,1.238 1.18,2.531 1.592,3.864 0.23,0.742 0.421,1.495 0.573,2.256 h 15.796 c -0.262,-1.941 -0.678,-3.861 -1.236,-5.738 -0.731,-2.457 -1.708,-4.839 -2.897,-7.109 -0.654,-1.248 -1.372,-2.462 -2.148,-3.637 -1.203,-1.82 -2.544,-3.544 -4.004,-5.16 z m -74.665009,0 c -1.96,2.17 -3.705,4.533 -5.188,7.06 -0.711,1.213 -1.362,2.462 -1.945,3.742 -0.686,1.504 -1.279,3.051 -1.771,4.629 -0.618,1.983 -1.076,4.016 -1.362,6.073 l -0.019,0.14 h 15.796 c 0.182,-0.914 0.422,-1.816 0.715,-2.7 0.44,-1.323 1.001,-2.605 1.668,-3.829 0.593,-1.087 1.269,-2.128 2.016,-3.116 0.299,-0.395 0.61,-0.781 0.93,-1.158 z m 25.588,-14.2290008 c -3.385,0.605 -6.698,1.607 -9.855,2.97 -5.392,2.3270008 -10.335,5.7080008 -14.451,9.8980008 l 10.82,10.819 c 3.119,-3.19 7.018,-5.612 11.22,-7.098 0.916,-0.323 1.847,-0.603 2.789,-0.837 1.081,-0.269 2.176,-0.478 3.279,-0.624 z m 23.345,-0.025 -3.805,15.1360008 c 1.367,0.175 2.722,0.442 4.054,0.804 0.935999,0.254 1.858999,0.553 2.767009,0.896 3.968,1.498 7.646,3.84 10.615,6.876 l 10.819,-10.82 c -4.716,-4.8 -10.517,-8.5370008 -16.841,-10.8490008 -2.469,-0.903 -5.019,-1.59 -7.609009,-2.043 z m -6.685,18.3880008 5.332,-21.2120008 h -20.646 l 5.332,21.2120008 z" /><path
     inkscape:connector-curvature="0"
     id="path3826"
     d="m 50.490124,19.443237 c -5.208306,5.952433 -8.884612,13.293006 -10.149123,21.122054 -0.396714,1.283834 1.461858,0.586419 2.155502,0.758552 4.569033,-8.06e-4 9.138066,-0.0016 13.707099,-0.0024 0.68644,-0.626428 0.607654,-1.849784 1.010942,-2.717942 0.938069,-2.946175 2.523383,-5.652821 4.471208,-8.065782 -0.151302,-0.979869 -1.432247,-1.570051 -2.027622,-2.392223 -2.97714,-2.906483 -5.844391,-5.985668 -8.890175,-8.78427 -0.100142,-0.08139 -0.185724,0.04741 -0.277831,0.08203 z"
     style="fill:#decd87;stroke-width:0.17677669" /><path
     inkscape:connector-curvature="0"
     id="path3828"
     d="m 39.975018,64.873467 c -0.163119,5.460677 -0.02296,10.974649 -0.06974,16.45577 -0.01091,0.944964 -0.31435,2.542816 1.183921,2.067804 4.938658,-0.04988 9.921682,0.0998 14.83259,-0.0749 0.333967,-1.312269 0.0413,-2.882698 0.139913,-4.290999 -0.04988,-4.702957 0.09979,-9.450276 -0.0749,-14.125484 -1.31227,-0.333966 -2.882699,-0.0413 -4.291,-0.139912 -3.878005,0.04985 -7.800352,-0.09975 -11.65061,0.0749 z"
     style="fill:#decd87;stroke-width:0.17677669" /><path
     inkscape:connector-curvature="0"
     id="path3830"
     d="m 85.991166,2.1892104 c -2.735393,0.032923 -5.477951,-0.028238 -8.208723,0.1187719 -0.494632,0.6739174 0.275893,1.6827321 0.303353,2.4762202 1.59875,6.2455965 3.069472,12.5478265 4.789335,18.7480315 1.260481,0.493145 2.734227,0.165838 4.068281,0.288629 2.079868,-0.06218 4.220496,0.141283 6.260036,-0.105637 1.798457,-6.97506 3.576733,-13.9787269 5.253582,-20.9849822 -0.379757,-0.7817277 -1.560977,-0.353829 -2.259772,-0.5120309 -3.401767,-0.04585 -6.804097,-0.02751 -10.206092,-0.029003 z"
     style="fill:#decd87;stroke-width:0.17677669" /><path
     inkscape:connector-curvature="0"
     id="path3832"
     d="m 125.28807,19.424593 c -3.57498,3.574229 -7.14988,7.148548 -10.72468,10.722957 -0.066,0.8514 0.96819,1.477136 1.35483,2.248033 1.81325,2.621166 3.13872,5.601397 3.80104,8.70211 0.84436,0.523895 2.11282,0.07914 3.11914,0.226495 4.32015,-0.05053 8.68512,0.100595 12.97747,-0.0749 0.2253,-1.029618 -0.32624,-2.249828 -0.48605,-3.342679 -1.50018,-6.861139 -5.02565,-13.176517 -9.59877,-18.461643 -0.16174,-0.112418 -0.27505,-0.136092 -0.44298,-0.02037 z"
     style="fill:#decd87;stroke-width:0.17677669" /><path
     inkscape:connector-curvature="0"
     id="path3834"
     d="m 120.23164,64.873467 c -0.16312,5.460677 -0.023,10.974649 -0.0697,16.45577 -0.0109,0.944964 -0.31435,2.542816 1.18392,2.067804 4.93866,-0.04988 9.92169,0.0998 14.83259,-0.0749 0.33397,-1.312269 0.0413,-2.882698 0.13992,-4.290999 -0.0499,-4.702957 0.0998,-9.450276 -0.0749,-14.125484 -1.31227,-0.333966 -2.8827,-0.0413 -4.291,-0.139912 -3.87801,0.04985 -7.80036,-0.09975 -11.65061,0.0749 z"
     style="fill:#decd87;stroke-width:0.17677669" /><path
     inkscape:connector-curvature="0"
     id="path3838"
     d="m 120.23164,84.849234 c -0.16313,5.431212 -0.0229,10.915739 -0.0697,16.367376 0.17232,0.96017 -0.35214,2.30642 0.27391,3.0306 5.19083,0.0221 10.38888,0.003 15.58248,0.009 0.6912,-0.66005 0.10777,-2.02444 0.30004,-2.95169 0,-5.421149 0,-10.842301 0,-16.263453 -0.66005,-0.691198 -2.02445,-0.107772 -2.95169,-0.300037 -4.34941,0.04987 -8.74317,-0.09978 -13.06482,0.0749 z"
     style="fill:#e9ddaf;stroke-width:0.17677669" /><path
     inkscape:connector-curvature="0"
     id="path3840"
     d="m 120.01377,42.953157 c 0.23741,5.329176 0.10641,10.838928 0.14713,16.235144 0.0756,1.378981 -0.14783,2.824495 0.10872,4.163228 5.22497,0.163153 10.50325,0.02294 15.74866,0.06975 0.69119,-0.660047 0.10736,-2.024447 0.29945,-2.951688 -0.0492,-5.626668 0.10589,-11.264841 -0.14595,-16.884647 -0.0357,-1.345678 -1.81618,-0.508028 -2.67464,-0.739507 -4.46553,0.04989 -8.97542,-0.0998 -13.4132,0.0749 z"
     style="fill:#e9ddaf;stroke-width:0.17677669" /><path
     inkscape:connector-curvature="0"
     id="path3842"
     d="m 99.858469,5.0863457 c -0.707488,0.2761448 -0.492315,1.3809017 -0.807566,1.9823482 -1.101815,4.3890231 -2.263514,8.7687551 -3.246559,13.1841941 0.499019,0.664936 1.636044,0.442761 2.380912,0.750691 5.321094,1.145726 10.397894,3.694349 14.332364,7.458787 0.59278,1.208573 1.43279,0.260389 1.98461,-0.412916 3.23221,-3.301892 6.63771,-6.493556 9.7619,-9.864157 -0.74788,-1.248968 -2.11808,-2.208296 -3.23423,-3.208775 C 114.9655,9.9459688 107.64288,6.4011331 99.858469,5.0863457 Z"
     style="fill:#e9ddaf;stroke-width:0.17677669" /><path
     inkscape:connector-curvature="0"
     id="path3844"
     d="M 76.067848,5.1467674 C 66.989431,6.7664616 58.499504,11.371983 52.004465,17.898168 c -0.03994,0.955593 1.352762,1.512122 1.869458,2.304185 3.004781,2.934925 5.89922,6.043317 8.972753,8.87016 1.165243,-0.657176 2.092825,-1.906427 3.270577,-2.67111 4.065552,-3.081959 8.917727,-4.90688 13.892163,-5.850894 0.579061,-0.520052 -0.136233,-1.431304 -0.13572,-2.099448 C 78.800412,14.067609 77.787879,9.661705 76.550531,5.3231988 76.455001,5.1500433 76.242142,5.1327691 76.067848,5.1467674 Z"
     style="fill:#e9ddaf;stroke-width:0.17677669" /><path
     inkscape:connector-curvature="0"
     id="path3846"
     d="m 40.199787,42.953157 c -0.474474,2.766432 -0.175708,5.630737 -0.289476,8.435555 0.03758,3.9591 -0.101342,7.961474 0.06986,11.892649 1.31227,0.333967 2.882699,0.0413 4.291,0.139914 3.878005,-0.04985 7.800352,0.09975 11.65061,-0.0749 0.334164,-1.312268 0.04201,-2.882698 0.140937,-4.291 0.02136,-5.143422 -0.04998,-10.337004 0.104282,-15.450697 0.452863,-1.276887 -1.449045,-0.591703 -2.132024,-0.759243 -4.582799,0.04989 -9.209974,-0.09981 -13.765024,0.0749 z"
     style="fill:#e9ddaf;stroke-width:0.17677669" /><path
     inkscape:connector-curvature="0"
     id="path3848"
     d="m 39.975018,84.849234 c -0.163132,5.431212 -0.02287,10.915739 -0.06974,16.367376 0.172319,0.96017 -0.352147,2.30642 0.273909,3.0306 5.19083,0.0221 10.388873,0.003 15.582478,0.009 0.691198,-0.66005 0.107772,-2.02444 0.300037,-2.95169 0,-5.421149 0,-10.842301 0,-16.263453 -0.660047,-0.691198 -2.024446,-0.107772 -2.951688,-0.300037 -4.349405,0.04987 -8.743166,-0.09978 -13.064823,0.0749 z"
     style="fill:#e9ddaf;stroke-width:0.17677669" /></g></svg>