<?xml version="1.0" encoding="utf-8"?>
<!-- Generator: Adobe Illustrator 21.1.0, SVG Export Plug-In . SVG Version: 6.00 Build 0)  -->
<svg version="1.1" id="Layer_1" xmlns="http://www.w3.org/2000/svg" xmlns:xlink="http://www.w3.org/1999/xlink" x="0px" y="0px"
	 viewBox="0 0 400 490.3" style="enable-background:new 0 0 400 490.3;" xml:space="preserve">
<style type="text/css">
	.st0{fill:#FFB81C;}
</style>
<g>
	<path class="st0" d="M80.1,276.5V175.7h123.6c4,0,5.5,0.5,7.4,2.3l11.1,11.3c1.9,1.9,2.3,3.3,2.3,7.5v58.4c0,4.2-0.4,5.6-2.3,7.5
		L211,274.1c-1.7,1.8-3.2,2.3-6.7,2.3L80.1,276.5z M203.7,55c4,0,5.5,0.5,7.4,2.3l11.1,11.3c1.9,1.9,2.3,3.3,2.3,7.5v23.3
		c0,4.2-0.4,5.6-2.3,7.5L211,118.4c-1.8,1.8-3.3,2.3-7.4,2.3H80.1V67.5L53,55H203.7z M400,253.6v-55h-99.6v55h22.8v160.5
		c0,4.1-0.5,5.6-2.3,7.5l-11.1,11.3c-1.9,1.9-3.2,2.3-7.4,2.3H200c-4.1,0-5.5-0.4-7.4-2.3l-11.1-11.3c-1.8-1.8-2.3-3.4-2.3-7.5
		v-82.6h24.4c16.5,0,27.4,0,40.4-13.2l21.5-21.9c13-13.2,13-24.1,13-40.5v-59.6c0-16.5,0-27.4-12.9-40.5l-7.4-7.6l7.4-7.5
		c13-13.2,13-24.1,13-40.5V75.6c0-16.5,0-27.4-12.9-40.5l-21.6-22C231.1,0,220.2,0,203.7,0H0v55h26v221.4H0v55h125.2V414
		c0,16.8,0,28,12.9,41.1l21.5,21.9c12.9,13.2,23.4,13.2,39.2,13.2h104.8c15.8,0,26.3,0,39.2-13.1l21.6-22
		c12.9-13.1,12.9-24.3,12.9-41.1V266.1l-27-12.4H400V253.6z"/>
	<polygon class="st0" points="179.3,267.9 179.3,253.6 202,253.6 202,198.6 102.5,198.6 102.5,253.6 125.2,253.6 125.2,267.9 	"/>
</g>
</svg>
